<?xml version="1.0" encoding="utf-8"?>
<!-- Generator: Adobe Illustrator 25.0.0, SVG Export Plug-In . SVG Version: 6.00 Build 0)  -->
<svg version="1.1" id="Lager_1" xmlns="http://www.w3.org/2000/svg" xmlns:xlink="http://www.w3.org/1999/xlink" x="0px" y="0px"
	 viewBox="0 0 792 612" style="enable-background:new 0 0 792 612;" xml:space="preserve">
<style type="text/css">
	.st0{fill:#0C4040;stroke:#000000;stroke-miterlimit:10;}
	.st1{fill:#F28627;stroke:#000000;stroke-miterlimit:10;}
	.st2{fill:#FFFFFF;stroke:#000000;stroke-miterlimit:10;}
	.st3{fill:#D94A3D;stroke:#000000;stroke-miterlimit:10;}
	.st4{fill:#1F5453;stroke:#000000;stroke-miterlimit:10;}
	.st5{fill:none;stroke:#000000;stroke-miterlimit:10;}
	.st6{fill:#F2F2F2;stroke:#000000;stroke-miterlimit:10;}
	.st7{fill:#FDFBF8;stroke:#000000;stroke-miterlimit:10;}
	.st8{fill:#EE703A;stroke:#000000;stroke-miterlimit:10;}
	.st9{fill:none;}
</style>
<circle class="st0" cx="402.9" cy="314.1" r="297.6"/>
<path class="st1" d="M665.1,309.7c0,141.3-117.4,255.8-262.3,255.8S140.6,451,140.6,309.7c0-9.3,0.5-18.5,1.5-27.6
	c2.3-20.9,7.2-41.1,14.4-60.3C193.2,123.9,289.7,54,402.9,54C547.7,54,665.1,168.5,665.1,309.7z"/>
<path class="st2" d="M53.3,131.6"/>
<ellipse class="st3" cx="387.1" cy="172.2" rx="45.5" ry="44.4"/>
<path class="st4" d="M595,491.1c-27.2,31.7-69.3,55.4-122.9,73c-38.2,10.1-81.4,11.2-130.1,2.3c-45.1-13.3-88.2-32-124.9-67.9
	c-26.6-32-52.9-64.2-63.9-100.9c-9.5-30.4-17.5-62.2-11.6-107.7l99.8-51.3l79.7-60.2l55.7,22.7l88.8-80.7l103,101.2l34.6-16.5
	l45.6,23.6c9.4,28.5,14.6,54.8,16.4,79.1C673.8,395.2,603.2,493.2,595,491.1z"/>
<path class="st2" d="M722.1,428"/>
<line class="st5" x1="282.9" y1="265" x2="376.9" y2="201.2"/>
<polygon class="st6" points="465.7,120.5 303.6,251 333.3,258.4 394.2,265 415.7,216.6 448.4,220.3 464.2,135.6 465.7,127.8 "/>
<polygon class="st7" points="316.7,188 268.6,257.7 212.9,265 "/>
<polygon class="st6" points="150.5,292.1 244.5,277.5 150.5,314.1 "/>
<polygon class="st6" points="598,212.2 492,258.4 580.7,247.4 "/>
<polygon class="st7" points="626.6,221.7 648.4,258.4 651,235.3 "/>
<polygon class="st7" points="645.1,301.1 610.8,215.7 608.1,272 632.5,297.2 "/>
<path class="st8" d="M270.7,216.6"/>
<g>
	<g>
		<path class="st5" d="M257.8,340.2"/>
	</g>
</g>
<g>
	<g>
		<path class="st5" d="M286.4,299.7"/>
	</g>
</g>
<rect x="241" y="438.2" class="st9" width="335.3" height="74.6"/>
</svg>
