<?xml version="1.0" encoding="utf-8"?>
<!-- Generator: Adobe Illustrator 25.0.0, SVG Export Plug-In . SVG Version: 6.00 Build 0)  -->
<svg version="1.1" id="Lager_2" xmlns="http://www.w3.org/2000/svg" xmlns:xlink="http://www.w3.org/1999/xlink" x="0px" y="0px"
	 viewBox="0 0 792 612" style="enable-background:new 0 0 792 612;" xml:space="preserve">
<style type="text/css">
	.st0{fill:#0C4040;stroke:#000000;stroke-miterlimit:10;}
	.st1{fill:#F28627;stroke:#000000;stroke-miterlimit:10;}
	.st2{fill:#D94A3D;stroke:#000000;stroke-miterlimit:10;}
	.st3{fill:#1F5453;stroke:#000000;stroke-miterlimit:10;}
	.st4{fill:none;stroke:#000000;stroke-miterlimit:10;}
	.st5{fill:#F2F2F2;stroke:#000000;stroke-miterlimit:10;}
	.st6{fill:#FDFBF8;stroke:#000000;stroke-miterlimit:10;}
	.st7{fill:#EE703A;stroke:#000000;stroke-miterlimit:10;}
	.st8{fill:#F2F2F2;}
	.st9{font-family:'GyparodyHv-Regular';}
	.st10{font-size:180.4587px;}
	.st11{fill:none;}
	.st12{font-family:'GyparodyRg-Regular';}
	.st13{font-size:70px;}
	.st14{fill:#79BD6C;}
</style>
<circle class="st0" cx="419.3" cy="306.5" r="297.6"/>
<path class="st1" d="M681.5,302.1c0,141.3-117.4,255.8-262.3,255.8S157,443.4,157,302.1c0-9.3,0.5-18.5,1.5-27.6
	c2.3-20.9,7.2-41.1,14.4-60.3c36.7-97.9,133.2-167.8,246.4-167.8C564.1,46.4,681.5,160.9,681.5,302.1z"/>
<ellipse class="st2" cx="403.5" cy="164.6" rx="45.5" ry="44.4"/>
<path class="st3" d="M611.4,483.5c-27.2,31.7-69.3,55.4-122.9,73c-38.2,10.1-81.4,11.2-130.1,2.3c-45.1-13.3-88.2-32-124.9-67.9
	c-26.6-32-52.9-64.2-63.9-100.9c-9.5-30.4-17.5-62.2-11.6-107.7l99.8-51.3l79.7-60.2l55.7,22.7l88.8-80.7L585,214l34.6-16.5
	l45.6,23.6c9.4,28.5,14.6,54.8,16.4,79.1C690.2,387.6,619.6,485.6,611.4,483.5z"/>
<line class="st4" x1="299.3" y1="257.4" x2="393.3" y2="193.6"/>
<polygon class="st5" points="482.1,112.9 320,243.4 349.7,250.8 410.6,257.4 432.1,209 464.8,212.7 480.6,128 482.1,120.2 "/>
<polygon class="st6" points="333.1,180.4 285,250.1 229.3,257.4 "/>
<polygon class="st5" points="166.9,284.5 260.9,269.9 166.9,306.5 "/>
<polygon class="st5" points="614.4,204.6 508.4,250.8 597.1,239.8 "/>
<polygon class="st6" points="643,214.1 664.8,250.8 667.4,227.7 "/>
<polygon class="st6" points="661.5,293.5 627.2,208.1 624.5,264.4 648.9,289.6 "/>
<path class="st7" d="M287.1,209"/>
<g>
	<g>
		<path class="st4" d="M274.2,332.6"/>
	</g>
</g>
<g>
	<g>
		<path class="st4" d="M302.8,292.1"/>
	</g>
</g>
<text transform="matrix(1.0254 0 0 1 260.8963 425.4)" class="st8 st9 st10">SK8</text>
<rect x="257.4" y="430.6" class="st11" width="335.3" height="74.6"/>
<text transform="matrix(1.0254 0 0 1 272.9744 494.8951)" class="st8 st12 st13">Hemsedal</text>
<path class="st14" d="M639,323l-13.8,25.2h9.9l-13.8,48.2h8.8l-15.4,57.3h12.1l-7.4,24c24.4-34.6,42.6-67,51.8-96l-8.6,4.8l6.9-8.4
	l-13.9-28.3l7.8-1.5L639,323z"/>
<path class="st14" d="M159.7,338.8l27.8-28.8l13.8,28.8h-13l13,24.7h-12.2l15.3,26h-14.5l18.3,35.9h-18.8h-4.1
	C172.5,398.1,162.5,369.7,159.7,338.8z"/>
</svg>
